<svg width="102" height="101" viewBox="0 0 102 101" fill="none" xmlns="http://www.w3.org/2000/svg">
<g filter="url(#filter0_d_1_1889)">
<path d="M97.5 46.5C97.5 71.9001 76.6863 92.5 51 92.5C25.3137 92.5 4.5 71.9001 4.5 46.5C4.5 21.0999 25.3137 0.5 51 0.5C76.6863 0.5 97.5 21.0999 97.5 46.5Z" stroke="currentColor"/>
<path d="M49.6 35.36C48.08 37.44 45.52 40.04 43.08 41.88L41.64 39.48C45.16 36.76 48.72 32.8 51 29.2C53.24 32.8 56.8 36.76 60.32 39.48L58.88 41.88C56.44 40.04 53.88 37.44 52.36 35.36V66.2H49.6V35.36Z" fill="currentColor"/>
</g>
<defs>
<filter id="filter0_d_1_1889" x="0" y="0" width="102" height="101" filterUnits="userSpaceOnUse" color-interpolation-filters="sRGB">
<feFlood flood-opacity="0" result="BackgroundImageFix"/>
<feColorMatrix in="SourceAlpha" type="matrix" values="0 0 0 0 0 0 0 0 0 0 0 0 0 0 0 0 0 0 127 0" result="hardAlpha"/>
<feOffset dy="4"/>
<feGaussianBlur stdDeviation="2"/>
<feComposite in2="hardAlpha" operator="out"/>
<feColorMatrix type="matrix" values="0 0 0 0 0 0 0 0 0 0 0 0 0 0 0 0 0 0 0.25 0"/>
<feBlend mode="normal" in2="BackgroundImageFix" result="effect1_dropShadow_1_1889"/>
<feBlend mode="normal" in="SourceGraphic" in2="effect1_dropShadow_1_1889" result="shape"/>
</filter>
</defs>
</svg>
